<svg width="17" height="17" viewBox="0 0 17 17" fill="none" xmlns="http://www.w3.org/2000/svg">
<path d="M8.5 15.9375C6.52745 15.9375 4.63569 15.1539 3.24089 13.7591C1.84609 12.3643 1.0625 10.4725 1.0625 8.5C1.0625 6.52745 1.84609 4.63569 3.24089 3.24089C4.63569 1.84609 6.52745 1.0625 8.5 1.0625C10.4725 1.0625 12.3643 1.84609 13.7591 3.24089C15.1539 4.63569 15.9375 6.52745 15.9375 8.5C15.9375 10.4725 15.1539 12.3643 13.7591 13.7591C12.3643 15.1539 10.4725 15.9375 8.5 15.9375ZM8.5 17C10.7543 17 12.9163 16.1045 14.5104 14.5104C16.1045 12.9163 17 10.7543 17 8.5C17 6.24566 16.1045 4.08365 14.5104 2.48959C12.9163 0.895533 10.7543 0 8.5 0C6.24566 0 4.08365 0.895533 2.48959 2.48959C0.895533 4.08365 0 6.24566 0 8.5C0 10.7543 0.895533 12.9163 2.48959 14.5104C4.08365 16.1045 6.24566 17 8.5 17Z" fill="#385C48"/>
<path d="M4.93635 4.93635C4.9857 4.88687 5.04432 4.84762 5.10886 4.82084C5.1734 4.79406 5.2426 4.78027 5.31247 4.78027C5.38235 4.78027 5.45154 4.79406 5.51608 4.82084C5.58063 4.84762 5.63925 4.88687 5.6886 4.93635L8.49997 7.74879L11.3113 4.93635C11.3607 4.88695 11.4194 4.84777 11.4839 4.82104C11.5485 4.79431 11.6176 4.78055 11.6875 4.78055C11.7573 4.78055 11.8265 4.79431 11.891 4.82104C11.9556 4.84777 12.0142 4.88695 12.0636 4.93635C12.113 4.98574 12.1522 5.04438 12.1789 5.10892C12.2056 5.17345 12.2194 5.24262 12.2194 5.31247C12.2194 5.38233 12.2056 5.45149 12.1789 5.51603C12.1522 5.58057 12.113 5.6392 12.0636 5.6886L9.25116 8.49997L12.0636 11.3113C12.113 11.3607 12.1522 11.4194 12.1789 11.4839C12.2056 11.5485 12.2194 11.6176 12.2194 11.6875C12.2194 11.7573 12.2056 11.8265 12.1789 11.891C12.1522 11.9556 12.113 12.0142 12.0636 12.0636C12.0142 12.113 11.9556 12.1522 11.891 12.1789C11.8265 12.2056 11.7573 12.2194 11.6875 12.2194C11.6176 12.2194 11.5485 12.2056 11.4839 12.1789C11.4194 12.1522 11.3607 12.113 11.3113 12.0636L8.49997 9.25116L5.6886 12.0636C5.6392 12.113 5.58057 12.1522 5.51603 12.1789C5.45149 12.2056 5.38233 12.2194 5.31247 12.2194C5.24262 12.2194 5.17345 12.2056 5.10892 12.1789C5.04438 12.1522 4.98574 12.113 4.93635 12.0636C4.88695 12.0142 4.84777 11.9556 4.82104 11.891C4.79431 11.8265 4.78055 11.7573 4.78055 11.6875C4.78055 11.6176 4.79431 11.5485 4.82104 11.4839C4.84777 11.4194 4.88695 11.3607 4.93635 11.3113L7.74879 8.49997L4.93635 5.6886C4.88687 5.63925 4.84762 5.58063 4.82084 5.51608C4.79406 5.45154 4.78027 5.38235 4.78027 5.31247C4.78027 5.2426 4.79406 5.1734 4.82084 5.10886C4.84762 5.04432 4.88687 4.9857 4.93635 4.93635Z" fill="#385C48"/>
</svg>
